<?xml version="1.0" standalone="no"?>
<!DOCTYPE svg PUBLIC "-//W3C//DTD SVG 20010904//EN"
 "http://www.w3.org/TR/2001/REC-SVG-20010904/DTD/svg10.dtd">
<svg version="1.0" xmlns="http://www.w3.org/2000/svg"
 width="2000.000000pt" height="2000.000000pt" viewBox="0 0 2000.000000 2000.000000"
 preserveAspectRatio="xMidYMid meet">
<metadata>
Created by potrace 1.11, written by Peter Selinger 2001-2013
</metadata>
<g transform="translate(0.000000,2000.000000) scale(0.100000,-0.100000)"
fill="#000000" stroke="none">
<path d="M10550 14504 c-41 -7 -86 -15 -100 -17 -49 -9 -145 -38 -172 -53 -16
-8 -28 -12 -28 -9 0 3 -10 0 -22 -7 -13 -7 -26 -11 -30 -10 -5 1 -8 -2 -8 -8
0 -5 -3 -10 -7 -9 -16 2 -53 -14 -53 -22 0 -5 -9 -9 -20 -9 -11 0 -20 -3 -20
-8 0 -4 -21 -18 -47 -32 -27 -13 -50 -27 -53 -30 -3 -3 -32 -25 -65 -50 -253
-187 -451 -519 -501 -840 -16 -103 -20 -172 -18 -283 2 -136 8 -197 30 -307 9
-41 16 -79 17 -85 1 -5 5 -12 9 -15 4 -3 9 -17 11 -30 8 -39 73 -197 86 -210
4 -3 7 -11 9 -19 5 -21 98 -159 151 -221 138 -165 314 -296 497 -371 16 -7 31
-13 34 -14 3 0 28 -8 55 -18 28 -9 52 -17 55 -17 3 0 28 -7 55 -16 45 -13 122
-26 168 -28 9 0 17 -3 17 -6 0 -8 304 -4 360 5 80 12 85 12 85 14 0 1 16 4 35
7 36 4 122 30 152 45 10 5 24 9 32 9 24 0 238 114 301 160 108 80 200 169 273
265 25 33 50 63 55 66 5 3 8 8 6 10 -1 2 9 23 24 46 23 36 115 216 117 228 0
3 2 10 4 17 3 7 12 36 20 64 9 28 19 60 21 72 3 12 7 32 10 45 28 125 40 409
21 537 -10 70 -41 206 -56 245 -7 17 -13 38 -15 48 -7 31 -92 204 -124 251
-17 24 -31 49 -31 54 0 6 -3 12 -8 14 -4 2 -24 26 -44 53 -50 68 -189 201
-267 253 -107 74 -238 142 -341 177 -3 1 -12 4 -20 8 -28 11 -105 29 -201 47
-118 21 -351 23 -459 4z m380 -606 c204 -40 380 -187 465 -388 15 -35 28 -71
30 -79 2 -9 8 -34 14 -56 35 -134 31 -380 -10 -515 -22 -74 -77 -188 -113
-235 -40 -53 -137 -143 -171 -159 -19 -9 -37 -21 -40 -26 -4 -6 -11 -8 -16 -5
-5 4 -9 1 -9 -4 0 -6 -8 -11 -18 -11 -10 0 -22 -4 -28 -9 -5 -4 -31 -14 -59
-20 -198 -49 -461 -21 -562 59 -14 11 -31 20 -38 20 -35 0 -221 218 -226 265
0 6 -4 15 -9 20 -10 13 -50 141 -56 180 -3 17 -7 46 -9 65 -6 43 -6 234 0 275
11 78 16 102 31 154 34 120 104 235 188 314 48 45 165 117 189 117 9 0 17 4
17 8 0 5 6 9 13 10 12 0 24 3 97 21 36 9 275 8 320 -1z"/>
<path d="M187 14483 c-3 -5 -31 -8 -61 -6 l-56 2 0 -1349 0 -1350 23 -1 c152
-4 247 -3 247 4 0 5 5 5 12 1 16 -10 69 -11 75 -1 2 4 9 4 15 1 12 -8 268 -8
276 0 8 9 9 658 0 683 -4 12 -4 24 0 27 9 5 7 609 -2 624 -3 6 -3 13 1 15 5 3
7 71 6 152 l-2 147 27 -38 c14 -22 29 -40 34 -42 4 -2 8 -7 8 -12 0 -8 448
-693 469 -717 6 -7 11 -14 11 -16 0 -3 76 -119 169 -259 92 -140 174 -265 181
-278 7 -14 16 -27 20 -30 4 -3 39 -54 78 -115 39 -60 78 -118 85 -128 13 -16
36 -18 236 -20 121 -1 221 2 221 6 0 5 5 5 12 1 15 -10 60 -10 75 -1 7 4 14 4
16 0 3 -5 27 -6 54 -5 l49 4 0 1346 -1 1347 -22 0 c-12 0 -25 4 -29 7 -4 4
-15 3 -25 -2 -12 -7 -20 -7 -24 0 -4 6 -11 7 -18 3 -14 -9 -157 -10 -157 -1 0
4 -13 3 -30 -2 -18 -5 -32 -5 -36 1 -3 5 -11 6 -17 2 -6 -4 -75 -7 -152 -7
l-140 -1 0 -822 c-1 -452 -4 -825 -8 -829 -3 -4 -10 2 -14 12 -4 10 -11 24
-16 29 -4 6 -41 60 -80 120 -74 113 -188 289 -356 545 -52 80 -99 148 -105
152 -6 4 -8 8 -4 8 4 0 -23 46 -61 103 -136 204 -261 397 -258 400 1 1 -8 13
-20 27 -13 13 -29 36 -35 52 -7 15 -15 28 -18 28 -3 0 -14 16 -24 35 -11 19
-23 35 -28 35 -5 0 -6 5 -3 10 3 6 2 10 -4 10 -5 0 -12 8 -16 19 -3 10 -16 30
-28 44 -21 23 -27 24 -125 23 -56 0 -102 2 -102 6 0 4 -13 3 -30 -2 -18 -5
-32 -5 -36 1 -3 5 -10 6 -17 2 -14 -9 -157 -10 -157 -1 0 4 -13 3 -29 -2 -17
-5 -33 -4 -39 2 -5 5 -12 6 -15 1z"/>
<path d="M5771 14481 c-8 -5 -10 -14 -7 -20 4 -6 4 -11 -1 -11 -4 0 -8 -38 -8
-85 0 -47 3 -85 7 -85 4 0 4 -11 -1 -23 -5 -13 -5 -30 -1 -37 5 -8 6 -18 3
-24 -9 -14 -9 -67 -1 -72 4 -3 3 -16 -2 -29 -6 -15 -6 -27 0 -30 6 -3 6 -15 0
-30 -6 -15 -6 -27 0 -30 5 -3 7 -12 4 -19 -3 -8 0 -17 7 -22 15 -9 343 -9 358
1 6 3 11 3 11 -2 0 -10 213 -9 229 1 6 4 11 4 11 -1 0 -4 24 -8 52 -8 l53 0 0
-1082 c0 -595 3 -1084 7 -1088 9 -9 108 -11 108 -2 0 5 5 5 11 1 16 -9 289
-11 289 -1 0 5 5 5 12 1 16 -10 68 -11 68 -1 0 5 5 5 12 1 16 -10 69 -11 75
-1 2 4 10 4 16 0 18 -11 47 -11 54 0 3 6 6 497 6 1092 l0 1082 156 -1 c86 -1
166 2 179 6 12 4 22 4 22 0 0 -9 213 -7 229 2 6 4 11 3 11 -2 0 -10 56 -9 66
1 4 4 12 3 18 -2 6 -5 20 -5 31 -1 20 7 20 15 19 256 -1 137 -2 252 -3 256 0
3 -34 7 -73 7 -40 0 -91 1 -113 1 -22 0 -71 -1 -108 -2 -38 -2 -71 0 -74 4 -2
5 -9 5 -15 1 -10 -6 -61 -7 -138 -4 -14 1 -56 0 -95 -1 -38 -2 -76 1 -82 6 -7
4 -13 5 -13 0 0 -5 -53 -8 -117 -7 -65 2 -131 3 -148 2 -16 0 -52 0 -80 0 -27
1 -63 1 -80 0 -92 -1 -153 -1 -180 0 -16 1 -68 1 -115 0 -47 -1 -101 -1 -120
0 -72 3 -387 1 -465 -2 -27 -2 -55 1 -60 5 -6 4 -17 3 -24 -1z"/>
<path d="M8442 14481 c-6 -3 -46 -5 -91 -4 -67 1 -81 -2 -84 -15 -2 -10 -4
-617 -3 -1351 l1 -1333 118 -2 c64 0 117 3 117 7 0 5 5 5 12 1 16 -10 68 -11
68 -1 0 5 5 5 11 1 16 -10 89 -11 89 -1 0 5 5 5 12 1 7 -4 37 -7 67 -7 31 1
79 2 107 2 l51 1 -1 1347 -1 1348 -35 2 c-19 2 -48 3 -65 2 -16 0 -52 0 -80 0
-66 1 -99 0 -165 -2 -30 -1 -69 0 -86 4 -18 4 -36 4 -42 0z"/>
<path d="M12677 14484 c-3 -3 -19 -6 -36 -6 l-31 -1 0 -1349 c0 -1071 3 -1348
13 -1348 130 -5 197 -3 197 3 0 5 5 5 12 1 16 -10 69 -11 75 -1 2 4 9 4 15 1
11 -7 325 -7 336 0 4 2 7 374 6 825 0 452 2 818 6 814 4 -4 63 -93 132 -198
69 -104 191 -290 271 -412 81 -122 147 -227 147 -232 0 -6 3 -11 8 -11 4 0 25
-28 47 -63 22 -34 43 -63 47 -65 5 -2 8 -8 8 -14 0 -6 11 -26 25 -44 14 -18
25 -37 25 -43 0 -6 5 -11 10 -11 6 0 14 -8 18 -18 4 -11 83 -134 177 -275 128
-195 174 -257 190 -257 11 -1 62 -2 113 -3 50 -1 92 2 92 6 0 5 5 5 12 1 16
-10 69 -11 75 -1 2 4 9 4 16 0 16 -10 57 -10 57 0 0 4 5 5 12 1 15 -10 60 -10
75 -1 7 4 14 4 16 0 3 -5 41 -7 85 -5 l80 3 -2 1352 c-1 1053 -4 1351 -13
1350 -39 -8 -123 -8 -123 -1 0 5 -5 6 -11 2 -7 -4 -64 -6 -128 -5 -64 0 -132
0 -151 0 -19 -1 -55 -1 -80 0 -47 1 -91 0 -125 -2 -20 -2 -20 -9 -20 -824 0
-546 -3 -823 -10 -823 -5 1 -30 33 -55 73 -48 78 -235 366 -248 382 -4 6 -19
28 -32 50 -13 22 -28 42 -32 43 -4 2 -8 7 -8 12 0 4 -26 48 -59 97 -112 169
-161 244 -161 249 0 3 -9 14 -20 26 -11 12 -20 28 -20 35 0 7 -4 13 -10 13 -5
0 -10 6 -10 13 0 6 -10 24 -23 39 -12 15 -40 55 -61 90 -22 35 -71 109 -108
166 -37 57 -68 108 -68 113 0 5 -4 9 -10 9 -5 0 -10 5 -10 10 0 6 -5 16 -11
23 -5 7 -38 54 -72 106 -39 59 -70 95 -82 97 -28 5 -84 5 -123 1 -18 -2 -35 0
-38 5 -3 5 -10 5 -17 1 -15 -9 -117 -10 -117 0 0 5 -5 5 -11 1 -16 -9 -220
-11 -240 -2 -9 4 -19 5 -22 2z"/>
<path d="M18765 14482 c-2 -3 -69 -6 -147 -6 l-142 -1 -1 -1342 c0 -1184 2
-1343 15 -1349 23 -9 750 -10 750 -1 0 5 5 5 11 1 16 -9 289 -11 289 -1 0 5 5
5 12 1 16 -10 68 -11 68 -1 0 5 5 5 11 1 16 -10 89 -11 89 -1 0 5 5 5 12 1 6
-4 69 -8 140 -8 l128 -1 0 252 c0 233 -1 252 -17 252 -10 1 -43 0 -73 0 -30
-1 -61 -1 -67 0 -7 1 -20 1 -28 1 -46 0 -106 0 -150 -1 -27 -1 -56 -1 -62 0
-14 1 -22 1 -85 1 -124 0 -141 -1 -149 -5 -4 -3 -10 -1 -14 4 -3 6 -13 7 -21
4 -8 -3 -58 -6 -110 -7 l-94 -1 -2 1100 -3 1100 -30 1 c-65 4 -93 4 -170 2
-44 -2 -97 -1 -117 3 -21 3 -40 4 -43 1z"/>
<path d="M3814 14423 c-21 -47 -28 -65 -49 -128 -9 -27 -20 -59 -25 -70 -14
-33 -131 -349 -135 -365 -2 -8 -4 -16 -5 -17 -2 -2 -3 -6 -5 -10 -2 -9 -13
-37 -24 -68 -5 -11 -9 -23 -10 -27 -1 -4 -10 -28 -21 -53 -11 -25 -17 -45 -13
-45 3 0 0 -6 -6 -14 -7 -8 -14 -22 -16 -32 -2 -11 -41 -118 -86 -239 -45 -121
-88 -238 -96 -260 -7 -22 -17 -49 -22 -60 -13 -32 -46 -121 -91 -245 -22 -63
-45 -124 -50 -135 -5 -11 -21 -54 -35 -95 -14 -41 -32 -89 -40 -107 -8 -17
-15 -35 -15 -40 0 -4 -18 -54 -39 -111 -22 -56 -36 -102 -33 -102 4 0 2 -4 -3
-8 -6 -4 -16 -23 -22 -42 -12 -38 -69 -195 -80 -220 -3 -8 -7 -19 -9 -25 -2
-5 -10 -28 -18 -50 -30 -84 -63 -76 317 -77 186 0 340 2 341 4 3 4 137 389
140 403 1 6 8 27 15 48 11 31 17 37 42 37 16 1 225 1 464 1 239 0 454 0 478
-1 l42 0 55 -162 c30 -90 57 -170 61 -178 4 -8 15 -41 25 -73 10 -32 21 -63
25 -69 8 -12 269 -17 269 -5 0 5 5 5 12 1 16 -10 69 -11 75 -1 2 4 9 4 15 1
11 -7 308 -7 315 0 2 2 -3 26 -12 53 -9 26 -18 53 -19 58 -2 6 -9 24 -16 40
-6 17 -23 59 -35 95 -51 142 -84 230 -93 247 -6 10 -10 21 -11 26 -2 14 -6 28
-14 47 -11 26 -59 155 -61 165 -2 6 -9 24 -15 40 -7 17 -14 35 -15 40 -3 10
-12 36 -26 70 -4 11 -19 52 -33 90 -14 39 -45 122 -69 185 -23 63 -43 117 -43
120 0 3 -11 32 -24 65 -28 74 -42 110 -74 200 -14 39 -28 79 -33 90 -4 11 -8
22 -8 25 -1 3 -5 11 -9 17 -5 7 -10 23 -12 35 -3 13 -9 32 -14 43 -6 11 -26
65 -46 120 -20 55 -42 116 -49 135 -24 61 -41 105 -42 110 0 3 -4 14 -8 25 -4
11 -17 45 -28 75 -11 30 -25 69 -31 85 -7 17 -12 32 -13 35 -1 3 -5 16 -10 30
-4 14 -6 27 -5 29 2 2 -1 7 -6 10 -5 3 -19 35 -32 71 -12 36 -26 74 -31 85 -5
11 -16 40 -23 65 l-15 45 -376 3 -376 2 -16 -37z m454 -861 c35 -103 64 -191
65 -197 2 -5 5 -14 8 -20 3 -5 11 -30 18 -55 7 -25 17 -54 22 -65 5 -11 18
-49 29 -85 12 -36 26 -74 31 -85 5 -11 10 -29 12 -40 1 -11 6 -26 10 -32 5 -7
10 -21 12 -30 2 -10 17 -55 33 -100 l31 -83 -32 -1 c-37 -1 -592 0 -624 0 -22
1 -23 0 5 81 8 23 8 24 14 40 3 8 17 49 31 90 14 41 45 129 68 195 23 66 42
125 44 130 1 6 5 17 8 25 15 40 47 130 46 133 0 1 4 13 9 27 5 14 27 78 48
142 22 65 41 118 44 118 3 0 33 -85 68 -188z"/>
<path d="M16322 14337 c-23 -67 -47 -131 -52 -142 -8 -17 -86 -230 -122 -330
-6 -16 -17 -45 -25 -64 -8 -18 -16 -39 -17 -45 -1 -10 -18 -56 -36 -101 -5
-11 -13 -33 -18 -50 -6 -16 -23 -61 -37 -100 -15 -38 -28 -74 -29 -80 -2 -5
-9 -23 -15 -40 -7 -16 -14 -34 -15 -40 -1 -5 -10 -26 -18 -46 -9 -20 -19 -50
-23 -68 -3 -17 -11 -31 -17 -31 -6 0 -9 -3 -5 -6 5 -5 -13 -63 -46 -144 -6
-14 -11 -29 -13 -35 -6 -22 -65 -181 -72 -195 -4 -8 -17 -42 -27 -75 -11 -33
-24 -63 -28 -66 -5 -3 -8 -10 -8 -15 1 -8 -28 -97 -49 -149 -4 -11 -17 -45
-28 -75 -11 -30 -24 -64 -28 -75 -4 -11 -8 -23 -8 -27 -1 -3 -4 -10 -8 -14 -5
-4 -8 -14 -8 -23 0 -9 -7 -29 -15 -45 -8 -15 -15 -32 -15 -36 0 -5 -5 -21 -12
-37 -6 -15 -12 -30 -13 -33 -1 -3 -4 -12 -7 -20 -4 -8 -11 -28 -16 -45 -6 -16
-33 -90 -61 -164 -28 -74 -49 -136 -47 -138 8 -8 316 -8 316 0 0 5 5 5 12 1
16 -10 69 -11 75 -1 2 4 9 5 14 1 5 -3 53 -6 107 -5 175 0 154 -9 182 74 14
39 24 74 23 77 -1 3 2 10 7 15 8 10 39 102 41 120 0 6 5 16 11 23 6 6 8 12 4
12 -4 0 0 13 8 29 8 15 17 39 20 52 2 13 10 39 16 57 12 32 12 32 83 32 378 3
940 0 944 -3 2 -3 6 -11 7 -19 2 -7 6 -20 9 -28 7 -18 137 -398 144 -422 3
-10 10 -18 17 -18 120 -5 196 -3 196 3 0 5 5 5 12 1 16 -10 69 -11 75 -1 2 4
9 5 14 1 6 -3 93 -7 195 -7 205 -2 196 -6 168 68 -8 22 -16 45 -18 50 -2 6 -7
19 -11 30 -4 11 -21 55 -36 98 -16 42 -42 112 -58 155 -15 42 -32 86 -36 97
-4 11 -9 25 -10 30 -2 6 -13 35 -25 65 -12 30 -23 62 -25 70 -3 13 -41 115
-65 175 -12 29 -23 59 -26 70 -3 12 -118 323 -138 375 -8 19 -35 94 -61 165
-26 72 -51 141 -57 155 -18 43 -25 60 -93 250 -149 409 -177 486 -190 515 -7
17 -18 48 -25 70 -7 22 -17 46 -23 53 -5 6 -7 12 -3 12 4 0 0 13 -8 29 -9 16
-12 31 -9 35 4 3 1 6 -5 6 -7 0 -12 9 -12 20 0 11 -4 28 -9 38 -5 9 -12 25
-15 35 -5 16 -30 17 -383 17 l-378 -1 -43 -122z m434 -614 c4 -16 8 -30 9 -33
2 -11 27 -86 32 -100 4 -8 7 -17 8 -20 1 -3 4 -12 8 -20 3 -8 24 -71 47 -140
23 -69 44 -132 47 -140 4 -8 7 -17 8 -20 4 -18 98 -299 105 -315 5 -11 20 -53
34 -92 l25 -73 -37 -1 c-56 0 -605 -1 -623 0 -14 1 -7 29 41 169 32 92 60 174
63 182 10 26 116 339 165 487 26 78 50 143 53 143 4 0 10 -12 15 -27z"/>
<path d="M6207 11104 c-1 -1 -31 -4 -67 -8 -36 -3 -76 -9 -90 -12 -14 -3 -32
-6 -40 -6 -8 0 -21 -5 -27 -11 -7 -5 -13 -7 -13 -4 0 7 -108 -33 -160 -59
-173 -86 -302 -254 -336 -436 -7 -42 -7 -215 1 -248 3 -14 9 -38 11 -55 3 -16
22 -64 41 -105 43 -91 157 -209 245 -255 32 -17 58 -33 58 -37 0 -4 7 -5 15
-2 8 4 15 1 15 -5 0 -6 8 -11 18 -11 10 0 23 -5 29 -11 6 -6 17 -11 24 -12 13
-2 49 -16 183 -68 27 -10 53 -19 58 -19 6 0 24 -6 41 -14 18 -7 64 -26 102
-41 173 -68 251 -144 259 -248 7 -90 -39 -171 -118 -207 -43 -20 -172 -25
-193 -8 -7 6 -13 8 -13 4 0 -4 -18 3 -40 14 -47 24 -93 70 -116 114 -15 30
-19 43 -30 95 -3 14 -7 27 -9 31 -2 3 -133 5 -292 5 l-288 0 1 -30 c1 -29 10
-80 20 -120 10 -40 59 -160 66 -163 5 -2 8 -8 8 -14 0 -29 123 -160 193 -205
23 -15 44 -31 47 -34 7 -9 136 -70 152 -73 7 -1 18 -4 23 -7 9 -6 54 -19 84
-25 7 -1 36 -8 65 -15 58 -15 355 -19 426 -6 62 11 153 38 166 48 6 5 13 6 16
3 13 -12 160 80 231 145 76 71 154 208 172 302 3 13 7 37 11 52 13 61 5 179
-20 312 -9 45 -69 144 -127 208 -56 62 -136 124 -199 154 -105 50 -170 77
-270 113 -269 98 -382 149 -424 193 -18 19 -50 71 -54 87 -8 33 -8 97 1 129
21 79 95 131 191 133 55 2 146 -19 146 -33 0 -5 6 -9 14 -9 24 0 93 -97 101
-145 1 -5 6 -20 10 -32 l7 -23 294 0 293 0 -5 48 c-10 100 -73 261 -129 327
-53 63 -138 145 -150 145 -2 0 -23 13 -47 28 -66 44 -171 83 -290 107 -51 11
-283 26 -291 19z"/>
<path d="M16685 11101 c-3 -2 -26 -5 -52 -7 -86 -5 -198 -34 -308 -79 -11 -4
-24 -9 -30 -10 -5 -2 -34 -17 -63 -34 -29 -17 -55 -31 -58 -31 -10 0 -159
-114 -195 -149 -167 -166 -297 -413 -326 -616 -2 -16 -6 -46 -9 -65 -9 -62
-11 -254 -3 -282 4 -16 3 -30 -2 -34 -5 -3 -6 -11 -2 -17 4 -7 8 -14 8 -17 1
-6 16 -87 21 -114 11 -61 79 -241 101 -267 7 -8 13 -19 13 -24 0 -7 60 -102
82 -130 99 -126 235 -245 338 -297 25 -13 47 -26 50 -29 6 -7 166 -69 190 -74
8 -2 38 -9 65 -15 28 -6 70 -14 95 -18 59 -9 324 -8 374 2 21 4 46 9 55 11
149 29 275 84 419 183 86 60 252 225 252 252 0 5 5 10 10 10 6 0 10 5 10 12 0
6 6 19 14 27 14 16 117 209 114 214 -1 1 8 31 19 67 30 94 44 161 47 236 2 22
5 44 7 50 9 18 -2 245 -16 314 -2 14 -7 39 -11 55 -18 90 -83 251 -137 340
-37 62 -91 135 -98 135 -5 0 -9 5 -9 10 0 26 -228 220 -259 220 -6 0 -11 4
-11 9 0 9 -151 81 -220 104 -70 23 -131 39 -170 43 -19 2 -55 6 -80 10 -51 7
-220 11 -225 5z m199 -515 c25 -4 47 -7 48 -6 12 7 178 -71 178 -82 0 -5 5 -8
11 -8 23 0 169 -168 169 -194 0 -4 8 -25 19 -49 22 -51 39 -108 47 -168 9 -63
10 -218 2 -259 -14 -71 -19 -95 -22 -105 -25 -98 -75 -184 -151 -261 -113
-113 -241 -162 -415 -159 -147 3 -233 29 -338 103 -79 55 -172 178 -197 262
-12 40 -25 93 -31 125 -9 48 -10 267 -2 310 35 181 101 297 223 389 119 91
285 128 459 102z"/>
<path d="M3158 11063 c-7 -14 -1 -1396 6 -1453 7 -65 12 -96 20 -130 3 -14 11
-49 18 -78 6 -29 15 -55 20 -58 4 -3 8 -13 8 -22 0 -28 84 -178 135 -240 40
-49 130 -132 144 -132 5 0 14 -7 21 -15 18 -21 164 -93 206 -101 19 -3 34 -9
34 -13 0 -4 8 -7 18 -8 9 -1 53 -8 97 -17 56 -10 123 -14 225 -11 152 3 181 7
269 32 29 8 59 16 65 17 6 1 33 12 60 24 27 12 52 22 57 22 4 0 14 6 21 13 7
6 29 21 48 31 94 51 201 162 276 284 43 71 102 228 109 292 3 19 7 46 10 60 3
14 8 63 10 110 2 47 4 90 5 95 1 6 1 12 0 15 -6 16 -4 150 3 150 5 0 5 5 2 11
-9 14 -12 119 -3 119 4 0 5 6 2 13 -9 24 -10 97 -1 97 4 0 3 8 -2 19 -6 10 -8
21 -5 23 3 4 5 102 3 183 0 11 0 40 1 65 1 25 1 47 0 50 -6 18 -4 140 3 140 4
0 3 8 -2 19 -6 10 -8 21 -5 23 3 4 5 102 3 183 0 11 0 40 1 65 1 25 1 50 0 55
-1 6 -3 24 -3 40 l-2 30 -272 3 -273 2 -1 -687 c-1 -379 -2 -699 -4 -713 -13
-112 -54 -207 -114 -269 -108 -111 -336 -135 -486 -53 -46 26 -105 92 -131
147 -50 108 -51 125 -52 826 -1 360 -1 675 -1 702 l-1 47 -269 0 c-149 0 -271
-3 -273 -7z"/>
<path d="M7597 11063 c-2 -5 -3 -514 -3 -1133 l1 -1125 123 -1 c67 -1 129 -5
137 -8 8 -3 15 -2 15 2 0 9 103 8 117 -1 6 -4 13 -3 17 0 8 9 91 7 106 -2 5
-3 10 -3 10 2 0 10 92 9 108 -1 6 -3 13 -2 17 4 4 6 10 8 14 5 8 -4 35 -5 174
-5 31 0 67 0 80 0 12 0 86 1 165 3 78 1 142 -2 142 -6 0 -5 5 -5 10 -2 13 8
108 11 115 3 4 -3 18 -3 33 1 l27 7 1 217 0 217 -40 0 c-23 0 -216 2 -431 3
l-390 2 0 250 0 250 383 0 382 0 -2 205 -3 205 -370 2 c-203 1 -375 2 -381 2
-7 1 -11 73 -11 236 0 231 1 235 21 236 12 0 206 2 431 2 l410 2 0 215 0 215
-702 3 c-386 1 -704 -1 -706 -5z"/>
<path d="M9434 10333 c2 -406 7 -756 11 -778 6 -35 21 -102 29 -130 1 -5 6
-26 10 -45 5 -19 13 -41 18 -47 6 -7 8 -13 5 -13 -8 0 65 -144 75 -148 4 -2 8
-9 8 -15 1 -28 130 -165 202 -215 41 -28 187 -102 219 -111 138 -38 168 -42
324 -46 136 -4 226 6 336 35 24 7 44 11 44 9 1 -2 13 4 28 14 15 9 27 15 27
12 0 -9 123 56 175 93 64 45 162 144 202 202 62 92 123 233 139 328 2 12 6 34
9 50 16 76 19 212 19 847 l1 690 -275 0 -274 0 -2 -700 c-1 -385 -5 -720 -9
-745 -8 -53 -64 -175 -97 -210 -76 -81 -185 -117 -333 -109 -43 2 -127 28
-168 52 -82 48 -144 142 -163 247 -13 75 -16 214 -16 798 l0 672 -273 0 -274
0 3 -737z"/>
<path d="M18424 9936 l0 -1134 41 0 c22 0 65 0 95 -1 57 -1 174 -2 200 -1 8 0
59 0 113 1 92 1 97 2 98 22 0 12 1 218 1 459 l1 436 331 0 c182 0 343 1 359 1
l27 1 0 204 c0 154 -3 205 -12 208 -7 2 -169 4 -359 4 l-345 -1 -1 247 0 248
26 1 c14 0 223 1 464 1 311 1 437 4 438 12 1 12 1 354 0 399 l-1 27 -738 0
-738 0 0 -1134z"/>
<path d="M128 11052 c-13 -2 -15 -131 -15 -1126 l0 -1123 69 1 c37 1 68 -3 68
-7 0 -5 5 -5 11 -1 16 10 189 11 189 1 0 -5 5 -5 12 -1 7 4 54 7 105 6 l93 -2
0 48 c1 26 1 341 0 701 0 360 2 653 4 650 1 -2 16 -40 31 -84 77 -224 108
-313 160 -460 31 -88 58 -164 59 -170 2 -5 9 -23 16 -40 7 -16 14 -39 16 -50
2 -11 31 -96 65 -190 33 -93 62 -174 63 -180 1 -5 9 -30 18 -55 10 -25 27 -72
38 -106 l22 -61 129 1 c71 1 129 -3 129 -7 0 -5 5 -5 12 -1 7 4 54 7 104 6 63
-1 95 2 102 11 5 6 19 44 31 82 12 39 26 79 31 90 4 11 23 63 41 115 17 52 58
172 91 265 32 94 72 211 89 260 16 50 33 99 38 110 12 27 42 113 45 128 2 6 8
25 14 40 7 16 12 34 12 41 0 7 3 16 7 20 4 3 8 12 10 19 7 33 68 207 73 207 3
0 5 -312 5 -693 l-1 -694 128 1 c70 1 128 -3 128 -7 0 -5 5 -5 12 -1 6 4 71 7
145 7 l133 -1 1 26 c4 140 2 2197 -2 2210 -6 16 -34 17 -330 15 -178 -1 -327
-2 -330 -2 -4 -1 -19 -36 -34 -78 -15 -43 -32 -84 -38 -90 -5 -7 -7 -13 -3
-13 3 0 -6 -26 -20 -57 -14 -32 -27 -62 -28 -68 -4 -15 -15 -43 -53 -138 -19
-48 -36 -93 -37 -100 -2 -6 -8 -25 -15 -42 -6 -16 -19 -50 -28 -75 -9 -25 -20
-50 -25 -56 -4 -6 -9 -19 -11 -30 -2 -10 -9 -32 -16 -49 -51 -125 -144 -372
-144 -382 0 -7 -5 -13 -10 -13 -6 0 -8 -2 -5 -6 3 -3 -9 -41 -28 -85 -18 -43
-34 -83 -35 -87 -1 -4 -5 -17 -10 -30 -5 -13 -9 -25 -9 -26 0 -2 -8 -21 -17
-42 -9 -22 -17 -41 -18 -44 0 -3 -5 -16 -9 -29 l-8 -24 -13 29 c-20 44 -145
364 -145 372 -1 4 -9 25 -20 47 -11 22 -19 45 -20 51 0 6 -6 24 -14 40 -7 16
-32 79 -56 139 -23 61 -48 124 -55 140 -7 17 -27 68 -45 115 -17 47 -38 99
-45 115 -7 17 -23 57 -35 90 -12 33 -28 74 -35 90 -21 51 -40 100 -41 105 -1
7 -22 60 -33 85 -5 11 -20 48 -33 83 -14 37 -29 62 -38 63 -46 2 -629 4 -642
1z"/>
<path d="M11838 11052 l-28 -3 0 -1124 0 -1123 30 -4 c17 -3 30 -2 30 1 0 8
135 5 149 -3 6 -4 11 -4 11 1 0 10 273 9 289 -1 6 -4 11 -3 11 3 0 6 6 8 14 5
11 -4 14 48 14 323 0 180 1 333 2 338 1 6 1 15 0 20 -6 26 -4 137 2 141 4 3 4
15 0 27 -9 27 -8 220 2 235 4 7 4 12 -1 12 -4 0 -8 65 -8 145 0 80 2 145 6
145 3 0 20 -44 38 -97 18 -54 36 -107 41 -118 5 -11 23 -63 40 -115 18 -52 38
-108 45 -125 7 -16 18 -46 23 -65 5 -19 29 -87 52 -150 23 -63 43 -122 45
-130 2 -8 4 -15 5 -15 1 0 3 -7 5 -15 2 -8 27 -80 55 -160 28 -80 70 -199 92
-265 22 -66 42 -122 44 -124 3 -4 63 -13 79 -12 90 5 165 4 165 -1 0 -4 6 -5
14 -2 24 9 127 10 133 2 2 -5 9 -5 15 -2 6 4 25 7 42 8 26 1 33 6 43 36 6 19
48 141 93 270 45 129 115 330 155 445 40 116 77 223 84 238 6 15 14 40 17 55
4 15 11 33 17 40 5 6 6 12 2 12 -4 0 -2 7 5 15 7 8 10 15 6 15 -3 0 1 17 10
38 20 49 45 119 50 146 2 11 8 22 14 24 6 2 8 8 5 13 -4 5 -1 17 4 26 7 13 10
-198 11 -678 l0 -697 120 2 c66 0 120 -3 120 -7 0 -5 5 -5 12 -1 15 10 137 11
165 2 12 -4 24 -4 27 0 2 4 27 7 56 6 46 -1 51 1 47 17 -3 11 -1 19 3 19 5 0
5 13 0 29 -4 16 -7 31 -5 33 6 5 7 99 2 131 -2 15 0 27 5 27 5 0 6 5 3 11 -4
5 -6 42 -5 82 2 90 2 86 -3 120 -2 15 0 27 5 27 5 0 6 5 3 10 -4 6 -6 35 -5
65 0 30 1 62 0 70 0 8 -1 27 -1 43 -1 15 -1 50 0 77 1 28 0 105 -1 173 -2 67
1 122 5 122 5 0 5 5 2 11 -4 5 -6 42 -5 82 1 40 1 78 1 85 -1 6 -1 20 -1 30 0
25 -1 54 -3 82 -1 14 1 40 4 58 4 17 3 35 -2 38 -5 3 -7 9 -5 13 6 9 8 87 4
174 -2 37 1 67 5 67 5 0 5 5 2 11 -4 5 -6 42 -5 82 1 40 1 78 1 85 -1 6 -1 20
-1 30 0 25 -1 54 -3 82 -1 14 1 40 4 58 4 17 3 35 -2 38 -5 3 -7 9 -5 13 4 6
7 82 5 134 0 21 33 19 -347 19 -172 1 -317 -3 -321 -8 -4 -5 -16 -31 -26 -59
-10 -27 -38 -102 -62 -165 -25 -63 -46 -119 -48 -125 -2 -10 -11 -33 -48 -125
-12 -30 -22 -57 -23 -60 -1 -5 -8 -24 -24 -65 -4 -11 -15 -37 -24 -58 -9 -21
-16 -44 -16 -52 0 -8 -5 -15 -12 -15 -6 0 -9 -3 -5 -6 3 -4 -1 -23 -9 -43 -8
-20 -69 -178 -135 -351 -66 -173 -123 -324 -128 -335 -5 -11 -16 -37 -23 -58
l-14 -39 -42 101 c-23 56 -42 107 -42 114 0 7 -4 17 -8 23 -5 5 -20 41 -35 79
-15 39 -54 140 -88 225 -34 85 -62 160 -64 165 -1 6 -10 28 -19 49 -10 22 -19
48 -21 57 -2 9 -8 25 -13 35 -16 31 -103 251 -107 272 -2 11 -8 28 -13 38 -14
28 -24 52 -93 229 -34 88 -66 164 -70 169 -8 9 -576 15 -641 8z"/>
<path d="M807 8094 c-2 -2 -23 -5 -47 -8 -106 -11 -128 -15 -170 -27 -25 -7
-47 -13 -50 -14 -25 -5 -95 -33 -140 -55 -121 -58 -206 -128 -277 -227 -46
-65 -107 -198 -98 -213 3 -5 2 -11 -3 -14 -22 -14 -22 -322 1 -386 3 -8 13
-37 23 -65 10 -27 23 -57 29 -65 7 -8 19 -28 28 -45 20 -41 122 -144 184 -188
55 -39 212 -116 268 -133 26 -8 302 -110 392 -146 131 -51 198 -95 255 -166
15 -18 43 -97 41 -112 -1 -3 -3 -25 -6 -50 -7 -60 -20 -91 -54 -127 -36 -39
-70 -60 -108 -68 -39 -9 -127 -13 -139 -7 -5 3 -24 6 -43 8 -18 2 -47 12 -62
24 -16 11 -32 20 -36 20 -4 0 -23 17 -42 38 -40 42 -77 118 -87 177 l-7 40
-322 -1 -322 -1 -1 -39 c0 -21 4 -57 9 -79 5 -22 10 -47 12 -56 13 -66 90
-229 107 -229 4 0 8 -5 8 -10 0 -12 7 -21 60 -78 58 -62 132 -119 211 -161 86
-46 199 -90 248 -97 18 -2 38 -7 44 -11 12 -8 40 -12 108 -17 25 -1 50 -5 55
-8 17 -8 359 3 359 12 0 1 11 3 25 6 14 2 57 14 95 26 39 12 72 22 75 22 14 3
138 72 172 96 90 65 208 199 208 236 0 8 4 14 9 14 5 0 12 10 16 23 10 30 12
36 15 42 1 3 3 8 5 13 1 4 5 14 8 22 21 47 35 160 32 258 -2 59 -6 114 -8 122
-7 27 -28 105 -31 115 -2 6 -5 15 -6 20 -8 24 -65 114 -104 161 -22 28 -70 74
-106 103 -60 47 -236 141 -320 171 -19 6 -46 18 -60 25 -14 7 -27 13 -30 13
-7 1 -27 8 -85 29 -27 10 -52 18 -55 19 -3 0 -18 6 -35 13 -16 6 -43 16 -60
22 -110 40 -222 99 -265 141 -51 50 -71 97 -72 168 -1 99 48 174 138 209 29
11 140 17 174 8 32 -8 95 -38 113 -55 36 -32 76 -100 89 -148 7 -27 17 -52 22
-56 5 -3 155 -6 334 -6 l324 0 -5 42 c-6 43 -7 51 -26 126 -13 50 -18 64 -52
135 -13 28 -27 52 -31 53 -5 2 -8 10 -8 18 0 8 -4 14 -10 14 -5 0 -10 6 -10
13 0 17 -99 118 -162 165 -129 97 -253 144 -471 178 -40 6 -265 12 -270 8z"/>
<path d="M6276 8093 c-1 -2 -29 -5 -62 -7 -32 -3 -59 -5 -59 -6 0 -1 -11 -3
-25 -6 -14 -2 -52 -11 -85 -20 -33 -8 -67 -17 -76 -19 -59 -12 -327 -146 -349
-175 -3 -3 -21 -17 -40 -30 -45 -31 -204 -192 -227 -230 -9 -17 -21 -30 -25
-30 -4 0 -8 -4 -8 -9 0 -6 -13 -29 -29 -53 -43 -64 -96 -173 -124 -258 -23
-69 -41 -136 -37 -142 1 -2 -3 -14 -8 -28 -30 -78 -33 -388 -7 -541 23 -131
94 -335 133 -381 8 -10 12 -18 8 -18 -3 0 21 -42 56 -92 71 -107 226 -266 313
-323 33 -22 62 -42 65 -45 3 -4 41 -25 85 -47 133 -66 267 -107 425 -129 70
-9 258 -11 320 -2 30 4 75 10 99 13 164 20 415 133 561 250 46 37 166 160 195
200 17 22 32 42 35 45 12 12 78 120 107 175 49 95 103 258 117 355 3 19 8 51
12 70 8 47 8 347 0 385 -4 17 -9 44 -12 60 -2 17 -7 41 -11 55 -3 14 -8 34
-10 45 -17 94 -103 281 -182 399 -90 136 -272 303 -401 368 -14 7 -27 15 -30
18 -13 14 -265 118 -265 109 0 0 -18 4 -40 9 -88 23 -176 33 -318 35 -54 1
-100 1 -101 0z m204 -577 c72 -7 88 -11 96 -19 4 -4 14 -7 23 -7 9 0 49 -17
89 -37 126 -64 245 -203 290 -338 7 -22 16 -47 19 -55 8 -19 9 -23 22 -94 11
-60 9 -307 -3 -361 -16 -70 -29 -111 -38 -122 -6 -7 -8 -13 -4 -13 10 0 -42
-99 -80 -153 -19 -26 -53 -64 -75 -85 -44 -40 -159 -117 -159 -106 0 4 -6 2
-12 -4 -34 -27 -167 -53 -278 -53 -95 0 -130 5 -210 31 -61 19 -80 28 -159 73
-35 20 -106 88 -143 138 -31 42 -91 149 -83 149 4 0 3 6 -2 13 -4 6 -9 17 -10
22 -1 6 -9 37 -18 70 -32 129 -34 331 -5 445 5 19 11 47 14 62 2 15 8 33 13
40 4 7 8 15 8 18 1 13 51 109 74 140 26 36 126 140 135 140 3 0 26 13 52 30
53 33 147 66 219 75 28 4 51 8 52 9 3 3 115 -3 173 -8z"/>
<path d="M3437 8084 c-4 -4 -31 -8 -59 -10 -59 -2 -105 -9 -175 -25 -27 -6
-55 -12 -63 -14 -8 -2 -27 -8 -41 -13 -15 -6 -30 -8 -33 -5 -3 4 -6 1 -6 -5 0
-7 -3 -11 -7 -10 -14 5 -105 -34 -177 -75 -162 -91 -301 -220 -397 -367 -64
-98 -149 -298 -165 -388 -3 -15 -9 -45 -14 -67 -24 -111 -34 -446 -15 -545 3
-19 8 -46 10 -60 2 -14 4 -26 6 -27 1 -2 3 -12 4 -23 1 -11 4 -23 5 -27 1 -5
2 -12 1 -17 -1 -4 4 -14 10 -22 6 -8 9 -14 5 -14 -3 0 6 -30 20 -67 13 -38 26
-75 29 -84 6 -29 72 -153 112 -210 90 -132 160 -204 303 -310 34 -25 240 -132
240 -125 0 3 22 -4 49 -13 26 -10 63 -21 82 -25 33 -6 54 -10 102 -21 26 -6
185 -18 237 -18 71 -1 265 16 265 23 0 1 16 3 35 5 45 6 69 11 100 23 14 5 29
10 33 10 9 0 58 18 97 35 14 6 27 11 30 12 30 10 179 91 190 104 3 3 23 19 45
36 68 50 183 174 235 254 28 42 54 81 59 87 4 5 14 26 20 46 7 20 15 38 19 40
17 7 97 267 84 269 -50 4 -422 2 -422 -2 0 -3 -19 -3 -42 0 -24 4 -61 5 -83 4
-22 -1 -53 -2 -70 -3 -27 0 -33 -8 -60 -62 -31 -65 -146 -191 -185 -203 -11
-3 -20 -10 -20 -14 0 -14 -118 -62 -192 -77 -65 -14 -197 -19 -238 -10 -8 2
-34 7 -58 11 -23 4 -45 12 -48 16 -3 5 -12 9 -21 9 -23 0 -124 64 -170 107
-22 21 -54 58 -72 83 -32 45 -89 157 -95 189 -1 9 -8 34 -14 56 -23 87 -32
268 -19 386 13 118 67 265 128 349 32 44 110 118 161 152 35 24 122 57 193 74
64 15 287 -2 320 -25 6 -4 27 -13 48 -20 98 -33 232 -156 282 -259 21 -42 36
-61 50 -62 22 -2 576 -2 612 -1 l22 1 -20 70 c-20 72 -40 131 -67 190 -71 161
-203 333 -327 425 -22 17 -42 32 -45 35 -12 13 -108 70 -118 70 -5 0 -12 4
-14 8 -3 7 -134 67 -148 67 -3 0 -18 5 -35 12 -27 10 -51 16 -150 39 -42 9
-78 13 -165 18 -41 3 -77 6 -80 6 -15 5 -48 4 -66 -2 -12 -3 -26 -2 -31 3 -5
5 -12 6 -16 3z"/>
<path d="M7951 8050 c-12 -8 -8 -480 4 -481 5 0 159 -1 340 -2 l330 -2 0
-1023 c0 -799 3 -1021 12 -1018 7 3 14 2 17 -2 6 -9 181 -7 197 3 8 6 10 4 4
-4 -6 -10 -3 -11 14 -2 11 7 21 8 21 4 0 -10 184 -8 201 2 8 6 10 4 4 -4 -6
-10 -3 -11 13 -2 12 6 23 7 26 3 5 -8 89 -8 103 1 4 3 8 464 8 1025 l-1 1019
328 -1 c181 -1 336 2 345 5 15 5 19 119 14 439 l-1 45 -986 0 c-542 0 -989 -2
-993 -5z"/>
<path d="M10299 8050 c-1 -7 -1 -2523 0 -2533 1 -4 10 -3 21 3 11 6 20 7 20 3
0 -4 42 -7 92 -5 93 3 125 2 163 -2 11 -1 26 3 34 8 10 7 15 8 18 1 2 -6 41
-9 101 -8 95 3 149 3 235 2 23 -1 58 -1 77 0 19 1 53 0 75 -2 22 -2 48 1 57 5
9 4 19 5 21 1 6 -10 181 -8 198 2 8 6 10 4 4 -4 -6 -10 -3 -11 14 -2 11 7 21
8 21 4 0 -5 44 -7 98 -5 105 3 146 3 165 -1 9 -1 13 59 15 236 l2 237 -272 0
c-150 -1 -334 -1 -409 0 l-136 0 -1 1013 c0 556 -1 1021 -1 1032 -1 20 -7 20
-306 20 -168 1 -305 -2 -306 -5z"/>
<path d="M14850 7850 c-1 -1277 0 -2324 4 -2327 8 -9 76 -8 76 0 0 4 6 5 13 0
16 -10 66 -11 95 -1 12 4 22 4 22 0 0 -9 153 -8 168 1 6 4 13 3 16 -2 4 -6 18
-6 36 -1 17 5 30 5 30 1 0 -8 140 -5 148 4 3 2 5 352 5 776 0 634 3 768 13
753 8 -11 18 -24 24 -31 5 -7 10 -15 10 -18 0 -5 39 -64 50 -75 3 -3 14 -20
24 -39 11 -19 25 -42 32 -50 28 -35 254 -382 254 -390 0 -5 4 -11 9 -13 4 -1
34 -43 67 -93 32 -49 63 -97 69 -106 5 -8 20 -31 32 -50 12 -19 27 -39 32 -46
6 -7 11 -17 11 -23 0 -5 5 -10 10 -10 6 0 10 -7 10 -15 0 -8 5 -15 10 -15 6 0
10 -4 10 -9 0 -8 60 -101 160 -251 6 -8 49 -73 96 -145 47 -71 94 -137 106
-144 19 -14 128 -23 128 -11 0 3 9 6 20 6 11 0 20 -3 20 -6 0 -7 154 -5 168 3
6 4 13 3 16 -2 4 -6 18 -6 36 -1 17 5 30 5 30 1 0 -9 62 -7 78 3 7 4 12 3 12
-1 0 -7 74 -9 90 -3 3 1 7 2 10 2 4 0 5 2457 1 2518 -1 14 -38 16 -306 16
l-305 0 0 -76 c0 -41 -1 -394 -1 -783 0 -445 -4 -705 -9 -702 -6 4 -10 12 -10
19 0 7 -9 21 -20 31 -11 10 -20 24 -20 32 0 7 -4 13 -10 13 -5 0 -10 5 -10 10
0 12 -41 73 -52 78 -5 2 -8 8 -8 14 0 12 -61 102 -72 106 -4 2 -8 8 -8 14 0 5
-29 53 -63 106 -35 54 -113 171 -172 262 -59 91 -138 210 -174 265 -36 54 -68
104 -71 110 -7 15 -64 99 -71 105 -3 3 -8 12 -12 20 -3 8 -59 96 -125 195
l-119 180 -307 0 -306 1 0 -206z"/>
<path d="M17639 8056 c-7 -3 -4 -2523 2 -2532 9 -11 60 -11 78 1 6 3 11 2 11
-4 0 -7 8 -7 25 -1 14 5 25 6 25 2 0 -4 45 -7 100 -7 55 0 100 2 100 5 0 3 9
6 20 6 11 0 20 -3 20 -6 0 -8 154 -5 167 3 7 4 14 4 17 -1 6 -9 59 -8 75 3 6
3 11 2 11 -4 0 -7 8 -7 25 -1 14 5 25 6 25 2 0 -9 152 -8 167 1 5 4 13 4 17 0
7 -8 105 -7 113 1 3 3 14 1 24 -5 11 -5 19 -6 19 -2 0 4 24 8 53 9 48 1 97 6
172 19 48 9 188 45 199 53 6 3 20 8 30 9 36 6 215 101 293 156 43 30 104 81
137 113 65 66 176 210 176 230 0 7 3 14 8 16 7 3 63 112 68 133 2 6 14 42 28
81 14 39 28 82 30 95 3 13 5 24 6 24 3 0 11 51 27 155 12 88 6 327 -12 445
-37 236 -165 489 -326 645 -85 82 -132 117 -270 198 -32 20 -203 89 -239 98
-101 24 -194 41 -270 51 -27 3 -1145 12 -1151 9z m1121 -560 c36 -9 74 -18 85
-21 29 -7 156 -71 183 -92 146 -112 234 -266 259 -453 12 -88 7 -260 -10 -336
-66 -291 -286 -482 -597 -519 -58 -7 -420 -8 -426 -2 -5 5 -8 1187 -5 1409 l1
36 223 -3 c156 -3 241 -8 287 -19z"/>
<path d="M12865 8031 c-5 -9 -86 -224 -89 -236 -1 -5 -15 -44 -31 -85 -15 -41
-28 -80 -28 -87 0 -7 -4 -13 -9 -13 -4 0 -8 -6 -8 -12 0 -10 -26 -87 -57 -168
-4 -8 -7 -17 -7 -20 -1 -3 -15 -39 -31 -80 -16 -41 -30 -79 -31 -85 -1 -5 -15
-45 -32 -87 -16 -42 -27 -79 -24 -82 3 -3 1 -6 -5 -6 -6 0 -13 -10 -16 -22 -6
-26 -53 -163 -67 -193 -5 -11 -20 -51 -33 -90 -23 -63 -31 -84 -58 -150 -4
-11 -15 -40 -23 -65 -8 -25 -38 -106 -66 -180 -28 -74 -52 -139 -54 -145 -5
-18 -48 -136 -62 -170 -4 -11 -9 -24 -10 -30 -6 -32 -18 -55 -27 -55 -6 0 -8
-3 -4 -6 5 -6 -12 -66 -32 -109 -5 -11 -21 -51 -34 -90 -14 -38 -39 -108 -56
-154 -17 -46 -29 -86 -27 -89 8 -8 106 -7 106 1 0 5 5 5 12 1 14 -9 158 -12
158 -4 0 3 9 6 20 6 11 0 20 -3 20 -6 0 -8 154 -5 167 3 7 4 14 4 17 -1 6 -9
59 -8 75 3 6 3 11 2 11 -3 0 -5 12 -7 28 -4 24 3 30 12 55 85 30 89 30 88 42
132 4 17 11 35 15 40 4 6 15 37 25 70 10 33 20 65 24 70 3 6 7 19 8 30 2 11 8
24 13 29 11 11 938 12 949 0 7 -7 136 -373 158 -445 3 -9 14 -14 31 -13 46 4
84 4 175 2 48 -2 87 -1 87 2 0 3 9 6 20 6 11 0 20 -3 20 -6 0 -8 154 -5 167 3
7 4 14 4 17 -1 6 -9 59 -8 75 3 6 3 11 2 11 -3 0 -5 11 -7 25 -4 14 2 25 6 25
8 0 3 -11 32 -25 66 -14 34 -25 69 -25 78 0 9 -4 20 -9 26 -5 5 -21 43 -35 84
-15 41 -29 82 -33 90 -3 8 -7 21 -9 28 -1 8 -14 41 -28 75 -22 54 -189 504
-192 517 0 3 -4 14 -8 25 -4 11 -16 43 -26 70 -10 28 -22 59 -26 70 -4 11 -8
22 -9 25 -1 3 -7 18 -13 33 -7 16 -12 33 -12 38 0 5 -4 17 -9 27 -5 9 -19 44
-31 77 -12 33 -26 68 -31 77 -5 10 -9 27 -9 38 0 11 -4 20 -8 20 -4 0 -14 21
-22 48 -16 55 -14 49 -29 87 -6 17 -23 62 -37 100 -43 116 -66 179 -75 200 -5
11 -31 83 -59 160 -28 77 -63 171 -77 210 -15 38 -26 75 -26 82 0 7 -4 13 -9
13 -4 0 -7 3 -6 8 0 4 -1 14 -5 22 -3 8 -13 36 -23 63 -11 32 -23 49 -38 52
-33 6 -686 3 -691 -4z m368 -696 c2 -11 7 -27 10 -35 4 -8 21 -55 37 -105 17
-49 33 -97 36 -105 3 -8 6 -17 6 -20 1 -3 17 -48 35 -100 19 -52 36 -99 37
-105 13 -51 20 -71 26 -80 5 -8 11 -26 35 -105 1 -3 4 -12 7 -20 4 -8 8 -24
11 -35 3 -11 14 -43 25 -71 34 -91 35 -101 7 -106 -14 -3 -25 -1 -25 4 0 5 -5
6 -11 2 -13 -7 -558 -8 -566 0 -3 2 -1 11 3 18 5 7 9 15 10 18 5 29 19 67 27
78 5 6 7 12 3 12 -3 0 -1 12 5 28 14 34 190 544 231 670 29 88 42 103 51 57z"/>
</g>
</svg>
