<svg viewBox="0 0 108 48" fill="none" xmlns="http://www.w3.org/2000/svg">
<path d="M13.3201 14.6994H9.79458L3.89813 5.81426V14.6994H0.372625V0.225201H3.89813L9.79458 9.19226V0.225201H13.3201V14.6994Z" fill="white"/>
<path d="M25.4036 12.0585H19.9401L19.0329 14.6994H15.3219L20.6617 0.327565H24.7232L30.063 14.6994H26.3107L25.4036 12.0585ZM24.4964 9.39699L22.6821 4.07408L20.8472 9.39699H24.4964Z" fill="white"/>
<path d="M42.5253 0.225201V3.00949H38.5669V14.6994H35.0207V3.00949H31.1035V0.225201H42.5253Z" fill="white"/>
<path d="M48.1554 0.225201V14.6994H44.6299V0.225201H48.1554Z" fill="white"/>
<path d="M58.1353 0C59.5097 0 60.7536 0.32074 61.8669 0.96222C62.994 1.59005 63.8805 2.47038 64.5265 3.6032C65.1725 4.72238 65.4955 5.99169 65.4955 7.41114C65.4955 8.83058 65.1657 10.1067 64.5059 11.2395C63.8599 12.3724 62.9734 13.2595 61.8463 13.901C60.733 14.5288 59.496 14.8427 58.1353 14.8427C56.7745 14.8427 55.5307 14.5288 54.4036 13.901C53.2903 13.2595 52.4037 12.3724 51.744 11.2395C51.098 10.1067 50.775 8.83058 50.775 7.41114C50.775 5.99169 51.098 4.72238 51.744 3.6032C52.4037 2.47038 53.2903 1.59005 54.4036 0.96222C55.5307 0.32074 56.7745 0 58.1353 0ZM58.1353 3.25517C56.9807 3.25517 56.0598 3.6305 55.3726 4.38117C54.6991 5.11819 54.3624 6.12818 54.3624 7.41114C54.3624 8.68045 54.6991 9.69044 55.3726 10.4411C56.0598 11.1918 56.9807 11.5671 58.1353 11.5671C59.2761 11.5671 60.1901 11.1918 60.8773 10.4411C61.5646 9.69044 61.9082 8.68045 61.9082 7.41114C61.9082 6.14183 61.5646 5.13184 60.8773 4.38117C60.2038 3.6305 59.2898 3.25517 58.1353 3.25517Z" fill="white"/>
<path d="M81.042 14.6994H77.5165L71.6201 5.81426V14.6994H68.0946V0.225201H71.6201L77.5165 9.19226V0.225201H81.042V14.6994Z" fill="white"/>
<path d="M93.1255 12.0585H87.662L86.7548 14.6994H83.0438L88.3836 0.327565H92.4451L97.7849 14.6994H94.0326L93.1255 12.0585ZM92.2183 9.39699L90.4041 4.07408L88.5691 9.39699H92.2183Z" fill="white"/>
<path d="M103.299 12.0175H108V14.6994H99.7738V0.225201H103.299V12.0175Z" fill="white"/>
<path d="M14.3767 18.1864V30.2587H11.4153V22.7092L8.78291 30.2587H6.2198L3.57011 22.692V30.2587H0.608687V18.1864H4.2282L7.53599 26.5957L10.7745 18.1864H14.3767Z" fill="white"/>
<path d="M19.9893 18.1004V25.1168C19.9893 25.9193 20.1683 26.5327 20.5262 26.9569C20.8956 27.3811 21.4267 27.5932 22.1195 27.5932C22.8122 27.5932 23.3375 27.3811 23.6954 26.9569C24.0649 26.5327 24.2496 25.9193 24.2496 25.1168V18.1004H27.211V25.1168C27.211 26.2633 26.9859 27.232 26.5356 28.0231C26.0853 28.8027 25.4676 29.3931 24.6826 29.7944C23.909 30.1842 23.0315 30.3791 22.0502 30.3791C21.0688 30.3791 20.2029 30.1842 19.4524 29.7944C18.702 29.4046 18.1132 28.8142 17.686 28.0231C17.2588 27.232 17.0452 26.2633 17.0452 25.1168V18.1004H19.9893Z" fill="white"/>
<path d="M38.6803 26.8365C38.6803 27.4785 38.5129 28.069 38.1781 28.6078C37.8548 29.1466 37.3699 29.5766 36.7233 29.8976C36.0883 30.2186 35.3148 30.3791 34.4027 30.3791C33.0288 30.3791 31.8973 30.0466 31.0083 29.3817C30.1193 28.7167 29.6344 27.7881 29.5536 26.5957H32.7055C32.7517 27.0543 32.9133 27.4155 33.1904 27.6792C33.4791 27.9429 33.8427 28.0747 34.2815 28.0747C34.6625 28.0747 34.9627 27.9715 35.182 27.7651C35.4014 27.5588 35.5111 27.2836 35.5111 26.9397C35.5111 26.6301 35.4072 26.3722 35.1993 26.1658C35.0031 25.9594 34.7548 25.7932 34.4547 25.6671C34.1545 25.5295 33.7388 25.369 33.2077 25.1856C32.4342 24.9219 31.7992 24.6697 31.3027 24.4289C30.8178 24.1767 30.3964 23.8098 30.0385 23.3283C29.6921 22.8353 29.5189 22.199 29.5189 21.4194C29.5189 20.6971 29.7037 20.0723 30.0731 19.5449C30.4426 19.0175 30.9506 18.6163 31.5971 18.3411C32.2552 18.0545 33.0057 17.9112 33.8485 17.9112C35.2109 17.9112 36.2904 18.2322 37.087 18.8742C37.8952 19.5163 38.3513 20.399 38.4552 21.5226H35.2513C35.1936 21.1213 35.0435 20.806 34.801 20.5768C34.5701 20.336 34.2526 20.2156 33.8485 20.2156C33.5021 20.2156 33.2193 20.3073 32.9999 20.4908C32.7921 20.6742 32.6882 20.9436 32.6882 21.299C32.6882 21.5856 32.7806 21.8321 32.9653 22.0385C33.1616 22.2334 33.404 22.3939 33.6926 22.52C33.9813 22.6461 34.3969 22.8066 34.9396 23.0015C35.7247 23.2652 36.3654 23.5289 36.8619 23.7926C37.3583 24.0448 37.7855 24.4174 38.1434 24.9104C38.5014 25.4034 38.6803 26.0454 38.6803 26.8365Z" fill="white"/>
<path d="M43.9717 20.4392V22.9843H48.1108V25.2028H43.9717V27.9027H48.6303V30.2587H41.0103V18.1004H48.6303V20.4392H43.9717Z" fill="white"/>
<path d="M53.8796 18.1004V25.1168C53.8796 25.9193 54.0586 26.5327 54.4165 26.9569C54.786 27.3811 55.3171 27.5932 56.0098 27.5932C56.7025 27.5932 57.2278 27.3811 57.5858 26.9569C57.9552 26.5327 58.1399 25.9193 58.1399 25.1168V18.1004H61.1014V25.1168C61.1014 26.2633 60.8762 27.232 60.426 28.0231C59.9757 28.8027 59.358 29.3931 58.5729 29.7944C57.7994 30.1842 56.9219 30.3791 55.9405 30.3791C54.9592 30.3791 54.0932 30.1842 53.3428 29.7944C52.5923 29.4046 52.0035 28.8142 51.5763 28.0231C51.1491 27.232 50.9355 26.2633 50.9355 25.1168V18.1004H53.8796Z" fill="white"/>
<path d="M77.541 18.1864V30.2587H74.5796V22.7092L71.9472 30.2587H69.3841L66.7344 22.692V30.2587H63.773V18.1864H67.3925L70.7003 26.5957L73.9388 18.1864H77.541Z" fill="white"/>
<path d="M90.6038 17.9112C91.7584 17.9112 92.8033 18.1806 93.7384 18.7195C94.6852 19.2468 95.4299 19.9863 95.9725 20.9379C96.5151 21.878 96.7864 22.9442 96.7864 24.1366C96.7864 25.3289 96.5094 26.4008 95.9552 27.3524C95.4125 28.304 94.6678 29.0492 93.7211 29.588C92.7859 30.1154 91.7468 30.3791 90.6038 30.3791C89.4608 30.3791 88.416 30.1154 87.4692 29.588C86.534 29.0492 85.7894 28.304 85.2352 27.3524C84.6925 26.4008 84.4212 25.3289 84.4212 24.1366C84.4212 22.9442 84.6925 21.878 85.2352 20.9379C85.7894 19.9863 86.534 19.2468 87.4692 18.7195C88.416 18.1806 89.4608 17.9112 90.6038 17.9112ZM90.6038 20.6455C89.634 20.6455 88.8605 20.9608 88.2832 21.5914C87.7175 22.2105 87.4346 23.0589 87.4346 24.1366C87.4346 25.2028 87.7175 26.0512 88.2832 26.6817C88.8605 27.3123 89.634 27.6276 90.6038 27.6276C91.5621 27.6276 92.3299 27.3123 92.9072 26.6817C93.4844 26.0512 93.7731 25.2028 93.7731 24.1366C93.7731 23.0703 93.4844 22.2219 92.9072 21.5914C92.3414 20.9608 91.5737 20.6455 90.6038 20.6455Z" fill="white"/>
<path d="M107.473 18.1004V20.4392H102.451V23.1047H106.33V25.3404H102.451V30.2587H99.4892V18.1004H107.473Z" fill="white"/>
<path d="M10.252 44.0357C10.252 44.7541 10.0647 45.4148 9.68998 46.0178C9.32822 46.6208 8.78558 47.1019 8.06206 47.4612C7.35146 47.8204 6.48583 48 5.46515 48C3.92767 48 2.66151 47.6279 1.66668 46.8838C0.671839 46.1397 0.1292 45.1005 0.0387599 43.7662H3.56591C3.61759 44.2794 3.79847 44.6836 4.10855 44.9786C4.43155 45.2737 4.83853 45.4213 5.32949 45.4213C5.75585 45.4213 6.09177 45.3058 6.33725 45.0749C6.58272 44.8439 6.70546 44.536 6.70546 44.1511C6.70546 43.8047 6.58919 43.5161 6.35663 43.2851C6.13699 43.0542 5.85921 42.8682 5.52329 42.727C5.18737 42.5731 4.72225 42.3935 4.12793 42.1882C3.26229 41.8931 2.55169 41.6109 1.99614 41.3414C1.4535 41.0592 0.981918 40.6486 0.581399 40.1098C0.1938 39.5581 0 38.8461 0 37.9737C0 37.1654 0.20672 36.4662 0.620159 35.876C1.0336 35.2859 1.60208 34.8368 2.32559 34.5289C3.06203 34.2082 3.90183 34.0478 4.84499 34.0478C6.36955 34.0478 7.57756 34.4071 8.46904 35.1255C9.37344 35.844 9.88378 36.8318 10.0001 38.0891H6.41477C6.35017 37.6401 6.18221 37.2873 5.91089 37.0307C5.65249 36.7613 5.29719 36.6266 4.84499 36.6266C4.45739 36.6266 4.14085 36.7292 3.89537 36.9345C3.66281 37.1398 3.54653 37.4412 3.54653 37.839C3.54653 38.1597 3.64989 38.4355 3.85661 38.6665C4.07625 38.8846 4.34757 39.0642 4.67057 39.2053C4.99357 39.3464 5.45869 39.5261 6.06593 39.7442C6.94448 40.0392 7.66154 40.3343 8.2171 40.6294C8.77266 40.9117 9.2507 41.3286 9.65122 41.8803C10.0517 42.432 10.252 43.1504 10.252 44.0357Z" fill="white"/>
<path d="M18.9253 34.1248C20.6695 34.1248 22.1101 34.5802 23.247 35.4912C24.3969 36.4021 25.1398 37.6337 25.4757 39.1861H21.9679C21.7095 38.5574 21.309 38.0635 20.7664 37.7043C20.2367 37.345 19.6036 37.1654 18.8671 37.1654C17.8981 37.1654 17.1165 37.5182 16.5222 38.2239C15.9279 38.9295 15.6307 39.8725 15.6307 41.0528C15.6307 42.2331 15.9279 43.1761 16.5222 43.8817C17.1165 44.5745 17.8981 44.9209 18.8671 44.9209C19.6036 44.9209 20.2367 44.7413 20.7664 44.3821C21.309 44.0228 21.7095 43.5353 21.9679 42.9195H25.4757C25.1398 44.459 24.3969 45.6907 23.247 46.6144C22.1101 47.5253 20.6695 47.9808 18.9253 47.9808C17.5945 47.9808 16.4253 47.6921 15.4175 47.1148C14.4098 46.5246 13.6281 45.7035 13.0725 44.6515C12.5299 43.5994 12.2586 42.3999 12.2586 41.0528C12.2586 39.7057 12.5299 38.5061 13.0725 37.4541C13.6281 36.402 14.4098 35.5874 15.4175 35.01C16.4253 34.4199 17.5945 34.1248 18.9253 34.1248Z" fill="white"/>
<path d="M34.4261 34.0478C35.7181 34.0478 36.8873 34.3493 37.9338 34.9523C38.9933 35.5425 39.8266 36.37 40.4339 37.4348C41.0411 38.4869 41.3447 39.68 41.3447 41.0143C41.3447 42.3486 41.0346 43.5481 40.4145 44.613C39.8072 45.6778 38.9739 46.5118 37.9145 47.1148C36.8679 47.7049 35.7051 48 34.4261 48C33.147 48 31.9777 47.7049 30.9183 47.1148C29.8718 46.5118 29.0384 45.6778 28.4183 44.613C27.811 43.5481 27.5074 42.3486 27.5074 41.0143C27.5074 39.68 27.811 38.4869 28.4183 37.4348C29.0384 36.37 29.8718 35.5425 30.9183 34.9523C31.9777 34.3493 33.147 34.0478 34.4261 34.0478ZM34.4261 37.1077C33.3408 37.1077 32.4752 37.4605 31.8292 38.1661C31.1961 38.8589 30.8795 39.8083 30.8795 41.0143C30.8795 42.2074 31.1961 43.1568 31.8292 43.8625C32.4752 44.5681 33.3408 44.9209 34.4261 44.9209C35.4984 44.9209 36.3576 44.5681 37.0036 43.8625C37.6496 43.1568 37.9726 42.2074 37.9726 41.0143C37.9726 39.8211 37.6496 38.8717 37.0036 38.1661C36.3705 37.4605 35.5113 37.1077 34.4261 37.1077Z" fill="white"/>
<path d="M53.6328 34.2595V36.8767H49.9119V47.8653H46.5785V36.8767H42.8963V34.2595H53.6328Z" fill="white"/>
<path d="M58.9251 45.3443H63.3437V47.8653H55.6111V34.2595H58.9251V45.3443Z" fill="white"/>
<path d="M73.9356 45.3828H68.7999L67.9472 47.8653H64.4588L69.4782 34.3557H73.2961L78.3155 47.8653H74.7883L73.9356 45.3828ZM73.0829 42.881L71.3774 37.8775L69.6526 42.881H73.0829Z" fill="white"/>
<path d="M92.3556 47.8653H89.0417L83.499 39.5132V47.8653H80.185V34.2595H83.499L89.0417 42.6886V34.2595H92.3556V47.8653Z" fill="white"/>
<path d="M107.551 41.0335C107.551 42.3678 107.261 43.5545 106.679 44.5937C106.111 45.6201 105.284 46.422 104.199 46.9993C103.126 47.5766 101.86 47.8653 100.4 47.8653H95.2257V34.2595H100.4C101.873 34.2595 103.146 34.5418 104.218 35.1063C105.29 35.6708 106.111 36.4662 106.679 37.4926C107.261 38.5189 107.551 39.6993 107.551 41.0335ZM100.109 44.9209C101.401 44.9209 102.403 44.5809 103.113 43.9009C103.837 43.221 104.199 42.2652 104.199 41.0335C104.199 39.8019 103.837 38.8461 103.113 38.1661C102.403 37.4862 101.401 37.1462 100.109 37.1462H98.5397V44.9209H100.109Z" fill="white"/>
</svg>
